<svg version="1.1" id="Layer_1" xmlns="http://www.w3.org/2000/svg" xmlns:xlink="http://www.w3.org/1999/xlink" x="0px" y="0px"
	 width="100%" viewBox="0 0 880 592" enable-background="new 0 0 880 592" xml:space="preserve">
<path fill="#000000" opacity="1.000000" stroke="none" 
	d="
M743.324829,214.173798 
	C738.185486,221.753082 730.959412,225.057693 722.561340,226.341095 
	C719.897827,226.748138 716.887146,226.947632 717.283081,230.807770 
	C719.228699,249.774719 703.634827,262.205353 682.899170,262.085754 
	C657.405823,261.938690 631.909851,262.192566 606.417236,261.987305 
	C601.479553,261.947571 599.009338,263.428284 597.420471,268.264557 
	C591.674377,285.755310 580.858704,298.757416 564.258240,307.653503 
	C533.137695,324.330933 502.523987,341.955048 471.725769,359.232330 
	C465.885956,362.508392 459.631958,364.796204 453.471954,367.320221 
	C449.167725,369.083893 445.123352,367.391479 441.450195,365.686920 
	C434.208466,362.326355 427.116516,358.590820 420.187073,354.618835 
	C393.020966,339.047058 366.189148,322.884399 338.501862,308.235504 
	C322.360657,299.695465 311.891418,286.493042 305.634735,269.578278 
	C302.829163,261.993469 302.691254,262.022430 294.556793,262.035614 
	C268.728271,262.077484 242.899750,262.143005 217.071213,262.187714 
	C204.769196,262.209015 194.555405,258.148834 187.911865,247.170898 
	C184.315460,241.228088 183.968216,234.614212 184.177643,227.957031 
	C183.534683,227.659744 183.110199,227.335083 182.648529,227.268524 
	C165.096191,224.738022 155.973648,214.801575 154.887558,196.999420 
	C154.535614,191.230804 154.899139,190.772766 160.853745,190.770920 
	C199.513962,190.759003 238.174164,190.782059 276.834381,190.797852 
	C283.499939,190.800583 290.171448,190.658035 296.828766,190.899246 
	C300.799652,191.043137 302.084045,189.458191 302.031677,185.631836 
	C301.851471,172.469391 302.083313,159.299896 301.807037,146.140472 
	C301.270538,120.586182 312.554688,101.999168 334.782501,89.993446 
	C353.392731,79.941666 372.291870,70.425522 390.923462,60.412399 
	C407.062073,51.739059 423.161255,42.999805 439.429810,34.566433 
	C446.897797,30.695131 453.732239,30.384026 461.132782,34.672256 
	C476.692261,43.688198 492.522705,52.236481 508.083252,61.250603 
	C511.796570,63.401684 515.146912,64.234886 519.387939,63.248108 
	C550.623718,55.980431 582.319336,52.305340 614.365417,51.544281 
	C619.701294,51.417557 620.492615,52.471321 618.092529,57.293827 
	C609.535278,74.487259 603.784973,92.811447 596.449707,110.494316 
	C595.129272,113.677361 595.305359,116.423187 596.863525,119.520317 
	C599.282776,124.328773 600.289307,129.554459 600.265686,134.992294 
	C600.194031,151.489166 600.223206,167.986450 600.193176,184.483536 
	C600.181763,190.763870 600.157104,190.819168 606.625488,190.812302 
	C651.450989,190.764786 696.276489,190.695892 741.101990,190.624542 
	C748.432251,190.612869 748.706848,190.821762 748.243774,198.241516 
	C747.897034,203.798401 746.474609,209.073181 743.324829,214.173798 
M523.938782,134.489075 
	C513.875061,141.797684 503.269318,148.415512 493.062195,157.880432 
	C503.671692,158.377792 512.565796,160.934647 521.820129,160.063278 
	C524.768188,159.785690 527.917542,159.359070 530.700745,160.702332 
	C533.667358,162.134064 536.433960,161.895355 539.386047,160.867722 
	C540.938538,160.327286 542.610901,160.035767 544.252747,159.878265 
	C545.540466,159.754761 547.075256,159.684067 547.754272,161.159622 
	C548.518311,162.819778 547.459167,164.066177 546.342224,165.076645 
	C543.601746,167.555847 540.409851,169.302444 537.030090,170.800232 
	C519.744995,178.460327 501.754700,178.134705 483.556213,175.691910 
	C481.382111,175.400055 479.120209,174.342041 477.057007,175.849319 
	C477.522186,179.136139 481.256287,178.032104 482.164124,180.395416 
	C483.948090,185.039398 486.105347,189.572250 487.471893,194.333679 
	C488.491058,197.884705 490.418274,199.756149 493.864532,200.367569 
	C499.123444,201.300568 504.666595,200.595062 509.650116,203.234573 
	C510.393158,203.628143 511.649506,203.373795 512.559387,203.080795 
	C520.571045,200.500931 527.780212,196.656647 533.503479,190.245773 
	C538.687317,184.439194 543.341248,177.923813 549.718872,173.476593 
	C561.424316,165.314209 565.626465,152.527771 571.362671,140.633270 
	C571.956360,139.402328 571.998474,137.532318 571.535034,136.229797 
	C569.614624,130.832565 571.782532,126.177711 573.753052,121.434715 
	C575.475281,117.289360 577.170410,113.132759 578.884521,108.984032 
	C579.796997,106.775604 580.649414,104.214439 579.560059,102.202782 
	C577.552246,98.494850 579.661926,96.870590 582.038513,94.800507 
	C585.416199,91.858452 588.947632,88.918304 589.258545,83.393127 
	C567.684998,100.294060 546.111511,117.194992 523.938782,134.489075 
M438.923950,101.405304 
	C447.993683,93.041878 457.957458,85.915863 469.288696,80.087936 
	C465.770935,75.767731 460.677155,74.821304 456.971527,71.921211 
	C451.976715,68.012161 447.486115,68.809509 442.332550,71.574524 
	C417.678253,84.802124 392.887726,97.775597 368.200623,110.942490 
	C360.711487,114.936821 353.278198,119.065178 346.044952,123.500153 
	C340.846191,126.687714 336.349884,130.884415 335.455994,137.348404 
	C334.613098,143.443420 334.125946,149.607758 334.430786,155.787384 
	C334.502014,157.231491 334.397339,158.800034 337.051117,160.459229 
	C338.083984,159.075745 339.090240,157.303345 340.486725,155.926743 
	C349.162201,147.374710 359.240265,140.930115 370.840820,137.227249 
	C382.511078,133.502136 394.224976,134.748672 405.716858,138.378006 
	C409.826538,139.675903 412.178253,139.027252 414.255951,134.729919 
	C420.246460,122.339737 428.350250,111.365829 438.923950,101.405304 
M434.100891,185.243011 
	C429.701508,185.804932 426.973999,188.421967 425.127045,192.298233 
	C423.009247,196.742767 422.051575,201.485703 421.820404,206.299026 
	C421.302673,217.079239 419.564087,227.835678 420.975250,238.669891 
	C421.371582,241.712830 422.806458,243.518036 426.081177,243.707611 
	C429.277924,243.892624 431.180237,242.621399 431.725159,239.425491 
	C432.141968,236.981125 433.390381,235.623474 436.076416,235.581818 
	C444.899841,235.445023 453.721069,235.170578 462.543854,234.982834 
	C465.576874,234.918289 467.737579,236.053497 468.098663,239.397614 
	C468.322235,241.468323 469.269745,242.856018 471.520569,242.953445 
	C473.924835,243.057526 475.721344,242.093048 476.714844,239.838440 
	C478.124084,236.640442 477.937744,233.232437 477.353882,229.994156 
	C476.258057,223.916519 472.932770,217.937607 477.349640,211.851425 
	C477.671539,211.407898 477.524109,210.537125 477.427216,209.890121 
	C476.712769,205.118500 476.119751,200.320450 475.174500,195.593521 
	C473.667664,188.058243 470.520569,185.365875 462.883453,185.091385 
	C453.574799,184.756836 444.255737,183.857071 434.100891,185.243011 
M339.956696,176.385452 
	C333.864380,184.408722 335.200653,193.762817 335.421997,202.838760 
	C335.502655,206.146027 338.168732,206.952744 340.880188,205.776932 
	C349.516632,202.031754 357.239929,196.320007 366.781189,194.451782 
	C370.386505,193.745819 372.900726,189.778336 371.650513,186.826340 
	C370.057983,183.066147 370.992706,176.759445 364.280457,176.362961 
	C362.130035,176.235931 359.586853,176.239182 359.233948,173.388184 
	C358.874512,170.484604 361.145447,169.393570 363.452637,168.631607 
	C366.485321,167.630035 369.031281,166.287552 368.729736,162.447678 
	C368.506958,159.610840 369.800262,158.079254 372.690125,157.856369 
	C375.613281,157.630905 376.957214,159.069336 377.325562,161.834015 
	C377.819580,165.541855 379.511047,168.394638 383.185394,169.851929 
	C384.397522,170.332687 385.619904,171.024597 385.758759,173.656250 
	C378.573395,174.922974 377.545258,180.857315 376.539459,187.153702 
	C375.899597,191.159164 377.173370,193.497681 380.007477,196.205078 
	C385.903381,201.837372 394.070648,201.910614 400.788239,205.485168 
	C403.286224,206.814392 405.976440,204.537766 406.615540,201.553284 
	C406.984161,199.832016 406.677246,197.902420 406.384979,196.113876 
	C404.772858,186.248550 403.443451,176.382889 404.686432,166.350006 
	C405.119293,162.856293 404.871368,159.390488 403.868225,155.967911 
	C403.362274,154.241776 402.499542,152.942429 400.884186,152.209641 
	C396.488434,150.215576 392.111145,148.258179 387.123291,148.118332 
	C365.708923,147.517944 350.972778,158.156082 339.956696,176.385452 
M523.384094,109.870758 
	C528.716064,106.691704 533.120911,102.355858 537.787048,98.343933 
	C545.710022,91.531906 555.314453,87.486168 564.231018,82.308022 
	C566.261597,81.128777 568.961487,79.786430 568.098755,77.143913 
	C566.481689,72.190918 569.862061,71.918526 572.891174,71.191330 
	C575.803406,70.492203 578.809326,70.162437 581.694885,69.378952 
	C584.369812,68.652672 586.940063,67.541084 589.556335,66.599152 
	C562.248779,66.437744 536.270996,73.128532 510.270844,79.675323 
	C507.196014,80.449547 505.205475,82.628677 503.348785,85.099792 
	C494.340302,97.089554 489.183746,110.682373 486.633270,125.314926 
	C486.094055,128.408737 485.211517,131.740280 487.175537,135.650482 
	C498.463318,125.818855 511.678040,119.572998 523.384094,109.870758 
M445.824738,137.661682 
	C446.415283,134.395401 448.619873,129.387405 447.309204,128.172775 
	C442.371033,123.596619 446.503113,121.339897 448.651154,118.436882 
	C449.832886,116.839851 451.166962,114.932167 453.467438,115.550766 
	C455.479736,116.091881 454.771118,118.355133 455.340698,119.831635 
	C456.328552,122.392448 456.322876,125.035614 456.313324,127.708015 
	C456.278687,137.371872 456.234070,147.036224 456.310242,156.699463 
	C456.323669,158.401169 455.663971,160.338989 457.434113,162.098526 
	C459.941467,159.045380 463.111359,156.972672 466.358093,154.963806 
	C470.004700,152.707535 471.630219,149.464310 471.849274,144.999329 
	C472.329712,135.207504 473.199341,125.426323 474.205505,115.671265 
	C475.092163,107.074577 475.269348,107.092850 468.065613,103.790199 
	C472.322906,97.022980 482.923279,97.258171 485.095642,88.241982 
	C465.689270,95.472664 449.040100,106.663734 436.319885,123.045128 
	C423.492218,139.564865 417.178253,158.401855 418.313354,179.493637 
	C419.168030,177.921982 419.614685,176.211960 420.246613,174.573395 
	C422.917938,167.647339 425.598969,166.419067 432.697357,168.564850 
	C436.268494,169.644379 439.178314,168.610062 440.134399,164.819397 
	C442.326233,156.129105 444.979370,147.524841 445.824738,137.661682 
M298.422272,212.230118 
	C300.812286,210.874161 302.256989,209.122131 301.371429,206.120941 
	C300.444824,202.980698 297.764587,203.766937 295.610931,203.411057 
	C294.635712,203.249908 293.616669,203.340744 292.617493,203.340149 
	C252.977448,203.316620 213.337402,203.287842 173.697372,203.303543 
	C172.130722,203.304169 170.363419,202.742508 168.963470,204.206955 
	C169.456970,206.548309 170.855057,208.037643 173.023727,208.844818 
	C174.096725,209.244202 175.538223,209.338776 175.630249,210.789948 
	C175.867889,214.538635 178.742477,214.605453 181.343475,215.067734 
	C184.806793,215.683273 188.332916,215.238434 191.777924,215.475723 
	C199.566101,216.012177 206.419525,212.229279 213.898972,211.431351 
	C220.983948,210.675507 228.139771,210.055389 235.105347,208.836853 
	C240.142899,207.955597 243.515823,208.549179 246.346008,212.542892 
	C247.914581,214.756317 250.090622,215.085342 252.533478,214.842331 
	C265.324982,213.569962 278.164032,214.331680 290.976837,213.960327 
	C293.321960,213.892349 295.648956,213.849991 298.422272,212.230118 
M324.692474,254.500275 
	C323.703033,250.927765 323.779480,247.256073 323.608673,243.597412 
	C322.567627,221.296112 324.004700,198.995911 323.606201,176.695023 
	C323.549377,173.513214 323.508209,170.317047 322.468689,167.315170 
	C321.302673,163.948029 319.080383,163.628387 316.403442,165.987518 
	C313.954132,168.146027 313.977844,170.974045 313.973724,173.801819 
	C313.941223,196.117310 314.189972,218.437027 313.819275,240.746567 
	C313.643341,251.334198 314.447784,261.384186 321.915588,269.582184 
	C325.100037,273.078033 327.706329,277.840607 334.711639,277.347443 
	C330.152405,270.163757 326.505981,263.151672 324.692474,254.500275 
M266.012848,239.588974 
	C243.526993,240.029449 221.076157,237.589203 198.514587,237.693024 
	C198.690933,242.075958 200.534241,244.021805 203.204330,245.870087 
	C207.711929,248.990326 212.612610,249.783188 217.861084,249.762115 
	C237.969254,249.681381 258.078003,249.695068 278.185547,249.545013 
	C283.997437,249.501663 289.827881,249.243942 295.607056,248.660797 
	C298.503357,248.368576 301.070312,246.674667 300.984955,243.250046 
	C300.887604,239.344360 297.684601,240.289001 295.367096,240.232727 
	C285.894501,240.002716 276.419617,239.868988 266.012848,239.588974 
M607.875854,248.018753 
	C619.013123,248.463959 630.213257,248.317429 641.273254,249.490753 
	C658.575623,251.326294 674.814575,246.526550 691.279846,242.861664 
	C693.006897,242.477264 694.659912,241.584335 695.410583,239.239410 
	C682.564697,239.239410 669.947510,239.125351 657.333130,239.266998 
	C639.841980,239.463394 622.352600,239.833008 604.863647,240.188034 
	C603.161133,240.222610 600.976379,239.690842 600.433533,242.300415 
	C599.880493,244.959534 601.375183,246.380707 603.605225,247.209198 
	C604.681274,247.608948 605.855103,247.745682 607.875854,248.018753 
M496.450012,228.091766 
	C496.028778,227.822922 495.634521,227.491272 495.181427,227.296585 
	C493.617523,226.624634 492.055450,224.224258 490.401337,226.000656 
	C488.507538,228.034531 491.106415,229.500198 492.132843,231.022705 
	C492.869934,232.115982 493.879425,233.030182 494.795807,233.997314 
	C505.827423,245.640152 518.513367,255.417984 530.658813,265.805603 
	C534.708618,269.269257 538.648926,272.867920 542.803650,276.199890 
	C546.142517,278.877533 549.826782,277.641113 553.339600,273.209717 
	C556.412598,269.333099 552.746704,268.381042 550.657288,266.878876 
	C532.810608,254.047668 514.927124,241.267456 496.450012,228.091766 
M378.628632,257.104584 
	C397.501709,242.564163 409.403107,230.227814 409.260284,225.295227 
	C406.766357,224.722885 405.271606,226.541595 403.579010,227.754135 
	C385.726837,240.543015 367.906525,253.376389 350.053070,266.163483 
	C345.479248,269.439392 345.755829,270.426666 349.810364,274.416046 
	C352.725433,277.284271 356.458069,275.593140 359.429291,277.513824 
	C362.816986,279.703766 366.319733,278.025879 365.787384,274.135010 
	C365.092316,269.054443 367.720612,266.480164 370.912872,263.759979 
	C373.317108,261.711243 375.684692,259.619476 378.628632,257.104584 
M583.329529,267.703552 
	C589.073364,257.717529 589.189087,244.116730 583.470520,237.866196 
	C579.013367,240.826050 579.038513,245.641663 578.279419,250.157471 
	C575.610779,266.031921 568.642761,279.211151 554.050659,287.202209 
	C530.131042,300.301178 506.008698,313.032440 482.507874,326.884186 
	C480.987427,327.780334 478.846130,328.147919 478.268860,330.353149 
	C479.835541,331.038727 480.861694,330.339325 481.947052,329.999847 
	C488.559265,327.931915 493.780487,323.318176 499.831390,320.234863 
	C520.289124,309.810638 540.426270,298.819275 559.834778,286.533783 
	C562.915405,284.583771 565.547424,281.600067 568.859558,280.410126 
	C575.251404,278.113831 579.425232,273.735809 583.329529,267.703552 
M456.981232,327.167297 
	C459.350037,325.841125 459.061768,323.589172 458.898315,321.444458 
	C458.230927,312.688354 457.510651,303.936279 456.819977,295.181946 
	C456.570221,292.016144 456.781738,288.596313 452.102631,288.507935 
	C445.404907,288.381439 443.827057,289.493622 443.350830,295.121765 
	C442.638184,303.544189 441.961578,311.970032 441.337097,320.399445 
	C440.875000,326.636871 442.942200,329.247498 449.033386,330.258179 
	C451.949188,330.742004 453.931976,328.572266 456.981232,327.167297 
M382.228577,81.664711 
	C383.116150,81.206154 384.002838,80.745934 384.891388,80.289253 
	C403.248444,70.854454 421.612030,61.432358 439.959717,51.979382 
	C447.061523,48.320419 454.094391,47.528278 461.349854,51.714432 
	C467.254272,55.121082 473.321106,58.248577 479.347565,61.440151 
	C481.960419,62.823898 484.652649,64.057693 487.308838,65.359596 
	C478.965546,59.059845 470.130920,53.784027 461.419067,48.312687 
	C454.490112,43.961056 447.621857,43.029144 440.412537,47.594891 
	C438.171783,49.013954 435.691742,50.053352 433.329987,51.283325 
	C407.793671,64.582260 382.848358,78.995567 356.972748,91.659264 
	C348.303650,95.901985 339.680817,100.315086 331.977112,106.213287 
	C327.042023,109.991730 322.795013,114.411324 321.014862,120.626266 
	C325.797852,115.757660 330.298828,110.712410 336.009949,106.850533 
	C350.413422,97.110886 366.447754,90.398468 382.228577,81.664711 
M634.882812,207.108688 
	C636.899170,207.866608 638.890015,208.704254 640.939087,209.359909 
	C642.969727,210.009674 644.995911,211.047867 647.225098,210.300812 
	C656.036926,207.347702 665.041199,205.800354 674.376343,205.859406 
	C691.190735,205.965820 708.006653,205.843307 724.821777,205.784027 
	C727.502197,205.774582 730.193237,205.638748 732.460815,203.776489 
	C730.767212,203.333344 729.135681,203.334167 727.504150,203.333221 
	C711.186768,203.323776 694.869324,203.311462 678.551941,203.304962 
	C654.242371,203.295288 629.932800,203.264984 605.623474,203.335220 
	C603.918213,203.340149 600.883789,202.433334 601.183655,205.557571 
	C601.446899,208.298904 604.060364,207.485016 606.047302,207.304901 
	C615.352966,206.461365 624.676514,206.865234 634.882812,207.108688 
M648.524597,222.277542 
	C635.751404,223.983414 622.904968,223.101501 610.090942,223.357452 
	C607.593689,223.407364 605.093872,223.338379 602.597107,223.400528 
	C601.543335,223.426758 600.605286,223.862183 600.450012,225.063217 
	C600.264099,226.501450 601.175842,227.275528 602.417725,227.483063 
	C603.721313,227.700928 605.071777,227.683960 606.402039,227.688980 
	C618.892578,227.736084 631.372314,227.492966 643.861938,227.100204 
	C661.173950,226.555817 678.510742,226.828308 695.835510,226.631851 
	C699.939331,226.585327 704.037720,226.064667 708.138611,225.762100 
	C706.926270,224.533676 705.801147,224.331619 704.669312,224.179138 
	C692.773438,222.576508 680.749756,223.315048 668.787476,222.243774 
	C662.518066,221.682327 655.817566,219.227448 648.524597,222.277542 
M542.722107,202.116943 
	C541.770142,203.290894 539.654114,203.719498 540.247192,207.057587 
	C548.143616,207.316940 556.032532,207.406662 563.917114,207.260208 
	C566.171265,207.218323 567.546326,205.620407 567.553345,203.282715 
	C567.576904,195.486221 567.547974,187.689255 567.465332,179.893250 
	C567.457153,179.122299 567.038635,178.270050 565.561707,178.164108 
	C558.441345,186.066467 552.170410,195.152542 542.722107,202.116943 
M199.355423,225.399277 
	C199.175018,225.620590 198.978958,225.832321 198.831223,226.073624 
	C198.809326,226.109406 199.008347,226.373505 199.117035,226.382126 
	C200.598862,226.499649 202.081467,226.622940 203.566406,226.683258 
	C215.047424,227.149658 226.523560,226.018539 237.981262,226.296448 
	C257.101135,226.760193 276.200531,228.092087 295.341827,227.678452 
	C297.524811,227.631287 300.041962,228.080383 301.628448,225.342926 
	C299.344818,223.241837 296.648499,223.418137 294.072235,223.402557 
	C282.089417,223.330109 270.104004,223.181427 258.124207,223.365219 
	C253.690338,223.433243 249.106537,220.316055 245.507965,221.684021 
	C239.988663,223.782150 234.681793,222.923599 229.329010,223.096024 
	C219.506210,223.412460 209.854004,225.729111 199.355423,225.399277 
M342.687500,219.199997 
	C335.106903,219.407669 335.106201,219.407684 335.257111,226.746078 
	C335.274200,227.577438 335.311584,228.408356 335.328552,229.239731 
	C335.377594,231.643433 335.453430,234.278900 338.524323,234.579224 
	C341.406342,234.861099 344.629669,234.158554 345.656006,231.216690 
	C346.682343,228.274902 348.597656,227.140213 351.118256,226.991486 
	C358.419861,226.560608 365.287476,224.152969 372.194733,222.225723 
	C376.258667,221.091827 380.460602,220.252792 384.555298,219.019638 
	C370.821869,217.764603 357.235779,218.852875 342.687500,219.199997 
M519.810547,217.328110 
	C517.855530,217.606842 515.485901,216.642715 514.118652,218.906250 
	C514.862671,220.354462 515.995850,220.652512 517.128235,220.961212 
	C523.865845,222.797852 530.592407,224.676147 537.349243,226.438934 
	C538.431396,226.721268 539.713257,226.741516 540.789124,226.455490 
	C544.931702,225.354218 548.982056,225.673828 553.145874,226.457123 
	C555.891357,226.973587 558.795837,226.964996 561.598511,226.764297 
	C564.203918,226.577744 566.665588,225.489609 566.683228,222.335281 
	C566.702271,218.926422 563.842041,219.072327 561.590515,218.972839 
	C547.952393,218.370316 534.309875,217.867371 519.810547,217.328110 
M376.806763,309.760010 
	C388.132507,314.759979 398.094177,322.767029 410.630432,325.201050 
	C391.083038,310.957245 369.980408,299.477112 348.337921,288.858368 
	C356.716705,296.941589 367.676697,301.510223 376.806763,309.760010 
M446.143951,256.736328 
	C445.828583,260.376984 445.512115,264.017548 445.198181,267.658325 
	C444.919342,270.892273 446.059906,272.876099 449.649445,272.597992 
	C452.862061,272.349030 455.123322,271.153778 454.715546,267.354401 
	C454.343292,263.886230 453.994812,260.414764 453.700470,256.939240 
	C453.550232,255.165558 453.206451,253.500168 451.114624,253.257675 
	C448.960205,253.007935 446.596252,252.700821 446.143951,256.736328 
M340.411499,254.705490 
	C341.452057,254.210800 342.591095,253.852631 343.510284,253.189682 
	C344.915894,252.175934 347.181854,251.234863 345.912201,248.997177 
	C344.713440,246.884476 342.752686,245.673691 340.016754,246.721863 
	C335.637329,248.399597 335.510925,250.975998 340.411499,254.705490 
z"/>
<path fill="#000000" opacity="1.000000" stroke="none" 
	d="
M239.169006,404.734009 
	C232.744354,421.770020 222.410416,429.004578 204.559784,429.275726 
	C201.397888,429.323761 198.235458,429.340302 195.073227,429.363495 
	C186.314148,429.427765 186.323425,429.426056 186.358963,437.940277 
	C186.377045,442.267517 186.244675,446.598633 186.386826,450.921173 
	C186.492599,454.137299 185.143494,455.396729 181.968063,455.349426 
	C162.610992,455.061035 166.205887,458.413391 165.969376,440.548004 
	C165.654312,416.751343 165.906418,392.947601 165.761368,369.147827 
	C165.739288,365.522614 166.892365,363.962585 170.590561,364.048401 
	C184.059586,364.360931 197.550705,363.418335 211.002533,364.772797 
	C232.131302,366.900238 244.256622,383.864441 239.169006,404.734009 
M217.935242,391.809265 
	C216.202316,387.596039 212.795593,385.356720 208.622284,384.204285 
	C202.257339,382.446625 195.729935,383.275330 189.264832,383.294525 
	C186.886200,383.301605 186.330414,385.086182 186.332489,387.118622 
	C186.338959,393.442535 186.382111,399.766785 186.329544,406.090210 
	C186.308929,408.571014 187.325302,409.834656 189.866684,409.767700 
	C195.345428,409.623322 200.831329,410.031311 206.291946,409.026398 
	C215.956497,407.247803 219.613342,402.294556 217.935242,391.809265 
z"/>
<path fill="#000000" opacity="1.000000" stroke="none" 
	d="
M479.117432,375.172516 
	C479.063110,382.479034 479.187927,389.316742 478.887177,396.135712 
	C478.682343,400.780731 480.207153,402.927643 485.128510,402.677887 
	C492.941650,402.281372 500.772614,402.192352 508.597534,402.096161 
	C511.295105,402.062988 512.750427,400.995209 513.782288,398.428314 
	C515.159363,395.002777 516.218140,390.884949 521.571838,391.732330 
	C527.674438,392.698212 533.182190,397.074524 533.810181,401.800568 
	C533.941345,402.787903 533.980103,403.793915 533.980713,404.791351 
	C533.990723,421.418121 533.987854,438.044922 533.987854,455.712891 
	C527.418701,455.712891 521.495911,455.826202 515.580750,455.662872 
	C512.810669,455.586365 512.861389,453.248962 512.789978,451.206604 
	C512.522217,443.553101 512.116211,435.901428 512.024292,428.245972 
	C511.978607,424.445587 510.606171,422.926697 506.676544,423.047058 
	C499.520630,423.266266 492.344971,423.241455 485.190735,422.970612 
	C480.573029,422.795746 478.998962,424.647583 479.166718,429.147156 
	C479.433411,436.301239 479.156036,443.474121 479.324738,450.633972 
	C479.405914,454.080292 478.103088,455.438232 474.642883,455.319305 
	C470.821320,455.187958 466.972534,455.293671 463.160889,455.605133 
	C460.175934,455.849060 458.775269,454.868805 458.789032,451.802582 
	C458.905762,425.815460 458.987549,399.828247 459.083984,373.841034 
	C459.096985,370.334961 460.384613,368.392151 464.302643,369.488098 
	C466.644745,370.143250 468.901489,369.538696 471.157990,368.817535 
	C478.529755,366.461639 478.989349,366.821228 479.117432,375.172516 
z"/>
<path fill="#000000" opacity="1.000000" stroke="none" 
	d="
M594.327698,433.597046 
	C600.221375,435.860229 604.550964,439.684753 609.293091,444.072449 
	C601.614197,450.907928 593.201172,455.623932 583.273254,456.927917 
	C568.696655,458.842407 556.434692,453.762268 547.742310,442.118561 
	C539.109436,430.554474 537.296326,417.422455 543.088806,403.867157 
	C548.666687,390.814087 564.544189,381.020874 577.370422,382.327576 
	C596.069153,384.232635 608.039673,394.516968 612.084778,412.152161 
	C615.261414,426.000793 614.511902,426.753662 600.452881,427.279541 
	C588.022339,427.744476 575.598206,428.432861 563.085754,428.277069 
	C563.987915,434.949615 572.277466,440.351410 579.304199,439.253967 
	C583.451477,438.606201 587.486389,437.508026 590.512634,434.320984 
	C591.565430,433.212250 592.559692,432.676758 594.327698,433.597046 
M582.224548,401.088867 
	C574.539490,399.194397 566.825134,401.616333 563.502258,406.966736 
	C561.459473,410.255951 562.157043,412.326233 565.793701,412.492279 
	C573.441223,412.841583 581.105835,412.872620 588.763977,412.902039 
	C591.508484,412.912567 592.284912,411.318909 591.146912,408.894440 
	C589.452271,405.284088 586.879639,402.568298 582.224548,401.088867 
z"/>
<path fill="#000000" opacity="1.000000" stroke="none" 
	d="
M735.476501,445.488861 
	C711.977234,466.174805 678.331055,455.804108 671.408630,426.069946 
	C666.330505,404.257660 684.682190,382.219208 708.070923,382.042480 
	C729.883728,381.877716 748.188843,400.359436 747.215027,422.021973 
	C746.800476,431.243622 741.888306,438.646576 735.476501,445.488861 
M714.145447,435.943481 
	C719.753784,433.815674 723.182556,429.725891 724.280334,423.920807 
	C727.180847,408.582428 717.110596,400.235168 706.325378,401.748444 
	C696.855713,403.077148 689.841675,412.457336 691.604858,420.602966 
	C694.245178,432.800385 704.017944,439.618195 714.145447,435.943481 
z"/>
<path fill="#000000" opacity="1.000000" stroke="none" 
	d="
M245.873383,449.059875 
	C235.777237,434.702820 239.544769,421.455109 255.367126,414.925446 
	C265.115082,410.902588 275.100769,409.002991 285.479553,412.622620 
	C286.241577,405.004059 281.385132,400.083008 272.615967,399.355988 
	C266.825256,398.875885 261.389893,400.319397 256.126007,402.628601 
	C254.186356,403.479523 252.464554,404.955536 250.112122,404.926147 
	C249.765991,404.561493 249.283081,404.269470 249.123672,403.853485 
	C242.615402,386.869354 239.942657,391.478577 257.749451,384.230103 
	C266.155121,380.808441 275.052032,380.961975 283.846954,382.761993 
	C298.465149,385.753784 305.969421,394.783600 306.217590,409.778625 
	C306.410583,421.440765 306.414032,433.109131 306.269745,444.771851 
	C306.226959,448.229523 308.417511,452.427887 306.225006,454.896515 
	C303.934204,457.475800 299.623322,454.755524 296.223480,455.399292 
	C295.901245,455.460297 295.548370,455.360840 295.226685,455.423218 
	C290.766052,456.288666 286.877747,456.177368 286.720520,449.943909 
	C272.702454,458.341400 259.223969,461.350647 245.873383,449.059875 
M262.600006,429.035645 
	C259.584747,433.098083 259.838043,436.930145 263.282013,439.351288 
	C269.478699,443.707855 282.952972,439.797546 285.913361,432.823273 
	C287.233368,429.713562 286.366730,427.011963 283.172119,426.716858 
	C276.469238,426.097687 269.559723,424.916748 262.600006,429.035645 
z"/>
<path fill="#000000" opacity="1.000000" stroke="none" 
	d="
M406.115356,381.697357 
	C412.113281,381.474945 417.542786,381.891296 422.863190,383.575073 
	C433.398407,386.909241 440.983093,396.206482 441.210266,407.235748 
	C441.511810,421.875092 441.271088,436.524994 441.367340,451.169678 
	C441.386688,454.116150 440.350342,455.480896 437.308014,455.334167 
	C434.484985,455.198029 431.643738,455.167969 428.823273,455.323242 
	C425.537384,455.504181 422.793610,455.044525 422.271545,451.401276 
	C421.122528,450.751740 420.232635,450.982422 419.614929,451.476532 
	C412.469513,457.192535 404.072540,456.873474 395.751984,456.172516 
	C387.853668,455.507172 379.677063,447.345123 377.716553,438.868591 
	C375.707153,430.180878 378.689789,422.812958 386.174164,417.686340 
	C395.473816,411.316223 405.873077,410.212189 416.719055,411.160767 
	C418.280090,411.297302 420.111084,412.547729 421.194305,410.551575 
	C422.082306,408.915131 421.118744,407.269409 420.272552,405.860077 
	C417.509247,401.257996 412.955139,399.789734 408.006042,399.341888 
	C400.412445,398.654785 393.485168,400.462524 387.156403,406.243439 
	C384.729736,400.424103 382.552246,395.202240 380.269623,389.728333 
	C388.861664,386.408936 396.471924,381.669495 406.115356,381.697357 
M400.175415,427.474365 
	C396.190460,430.969360 396.111694,435.990387 399.998199,438.766602 
	C406.258240,443.238190 418.731384,439.265137 421.116608,432.034393 
	C422.164703,428.857117 421.233002,426.591431 417.747955,426.343719 
	C412.129120,425.944397 406.462311,425.455963 400.175415,427.474365 
z"/>
<path fill="#000000" opacity="1.000000" stroke="none" 
	d="
M372.948975,427.445129 
	C377.673065,439.753540 365.789734,453.431152 352.985931,456.241394 
	C344.041107,458.204620 335.413483,456.751160 326.982635,453.830139 
	C321.807068,452.036987 317.125336,449.175323 312.206635,445.774445 
	C315.128235,440.704834 318.464111,436.277679 322.589569,432.021942 
	C327.964630,436.052399 333.643799,439.066071 340.117401,440.295135 
	C343.267853,440.893280 346.390594,441.044800 349.408020,439.608917 
	C351.540466,438.594238 352.926453,437.062164 352.885284,434.605682 
	C352.845245,432.217285 351.180908,431.028442 349.186829,430.433319 
	C345.047089,429.197784 340.863892,428.102478 336.679779,427.022278 
	C327.118652,424.553894 318.614838,420.794495 315.788544,410.062714 
	C313.676666,402.043732 317.566681,392.241791 324.761444,387.315094 
	C336.292816,379.418701 358.158600,380.075409 369.312439,388.641632 
	C370.677216,389.689758 372.302521,390.821411 370.785706,392.656921 
	C367.679443,396.415833 366.036407,400.945801 364.046112,405.633392 
	C359.583954,403.241760 355.699402,400.710205 351.258392,399.317902 
	C347.846130,398.248138 344.399719,397.783051 340.924164,398.553864 
	C338.359283,399.122711 336.109650,400.634430 335.843811,403.418854 
	C335.576721,406.217102 337.993256,407.504303 340.180054,408.224030 
	C345.390991,409.939026 350.742706,411.223053 355.969299,412.894653 
	C363.487549,415.299164 370.157074,418.827881 372.948975,427.445129 
z"/>
<path fill="#000000" opacity="1.000000" stroke="none" 
	d="
M623.784546,455.734741 
	C621.412781,455.102417 621.753967,453.497986 621.678589,452.006409 
	C620.610107,430.866058 620.933167,409.729218 621.628357,388.585693 
	C621.745422,385.024261 622.851318,383.422363 626.568420,383.526367 
	C629.885742,383.619141 633.231079,383.330475 636.539124,382.976929 
	C640.877136,382.513306 642.835938,384.076019 642.104675,388.600067 
	C641.901611,389.855988 641.758667,391.250732 642.619873,392.547577 
	C644.545044,392.562531 645.350281,390.872803 646.467834,389.799500 
	C653.156250,383.376038 661.317505,382.089813 670.104553,382.752502 
	C672.799438,382.955780 673.445190,384.483398 673.089294,386.834900 
	C672.417114,391.276031 671.764587,395.720215 671.075317,400.158691 
	C670.672058,402.755280 669.447571,404.370972 666.503479,404.420410 
	C663.178040,404.476318 659.860046,404.952911 656.534302,405.020416 
	C650.753662,405.137787 647.203796,408.082336 645.468628,413.411255 
	C644.068848,417.710144 643.439636,422.149902 643.264893,426.665283 
	C642.955872,434.650574 642.496887,442.631866 642.323792,450.619690 
	C642.251953,453.936127 641.174561,455.465027 637.641357,455.391785 
	C633.155945,455.298767 628.661316,455.651215 623.784546,455.734741 
z"/>
<path fill="#000000" opacity="1.000000" stroke="none" 
	d="
M305.155487,480.927307 
	C304.309418,483.597961 303.569000,485.976288 302.784058,488.339813 
	C302.268646,489.891754 301.235840,490.895538 299.535889,490.997955 
	C297.834473,491.100494 296.774506,490.150818 295.951385,488.765259 
	C294.849731,486.910736 289.702484,470.858521 289.311371,467.696350 
	C292.098511,466.375305 294.658234,466.110229 296.082947,469.567291 
	C297.065765,471.951996 297.008026,474.751984 299.066895,477.117218 
	C300.994781,474.921265 301.415924,472.271759 302.295135,469.859985 
	C302.884155,468.244385 303.366547,466.667358 305.571075,466.773010 
	C307.468567,466.863983 308.604095,467.908997 309.377472,469.526154 
	C310.642517,472.171387 311.218781,475.165802 313.563110,477.862671 
	C314.673248,474.905457 315.831024,472.348816 316.582123,469.677856 
	C317.396118,466.783142 319.304749,466.589813 321.601440,467.241486 
	C324.239502,467.989990 323.531158,470.087646 322.953766,471.744873 
	C321.095428,477.078705 319.087219,482.361450 317.067230,487.637238 
	C316.401764,489.375427 315.504883,491.027649 313.247772,491.025604 
	C310.869385,491.023438 309.665924,489.477509 308.922760,487.505829 
	C307.942810,484.905975 307.078369,482.262543 306.145233,479.644653 
	C306.141449,479.634003 305.795685,479.673859 305.721863,479.773346 
	C305.528717,480.033783 305.397888,480.340454 305.155487,480.927307 
z"/>
<path fill="#000000" opacity="1.000000" stroke="none" 
	d="
M301.812256,337.201843 
	C300.194885,332.832214 302.839325,331.435669 306.004791,330.877594 
	C309.865570,330.196899 312.462219,328.640076 312.845612,324.361328 
	C313.028595,322.319153 314.367859,321.083984 316.542023,321.064270 
	C318.910278,321.042816 321.092285,321.804413 321.453186,324.328949 
	C322.073914,328.671143 324.112366,331.149963 328.612488,331.649506 
	C330.383484,331.846039 331.523560,333.197113 331.589813,335.128845 
	C331.651367,336.924042 330.474670,337.846710 328.993561,338.367126 
	C324.916412,339.799683 322.325439,342.442322 321.474976,346.794983 
	C321.094330,348.743317 319.768097,349.972382 317.646332,350.118774 
	C315.752319,350.249420 314.168152,349.452332 313.727600,347.710724 
	C312.172211,341.561493 307.492035,339.148499 301.812256,337.201843 
z"/>
<path fill="#000000" opacity="1.000000" stroke="none" 
	d="
M583.886780,346.188171 
	C582.516479,342.110779 580.283691,339.495483 576.282837,338.524384 
	C574.465149,338.083191 572.733582,337.144379 572.991943,334.792542 
	C573.219421,332.721558 574.610535,331.395325 576.536255,331.074310 
	C580.472717,330.418182 582.782471,328.571747 583.149658,324.328552 
	C583.319580,322.364105 584.976807,321.195496 587.092834,321.194794 
	C589.320374,321.194092 591.231689,322.187134 591.662781,324.350220 
	C592.470032,328.400970 594.986877,330.130585 598.747803,330.897797 
	C600.349121,331.224457 601.969238,332.006226 602.203064,334.034821 
	C602.458374,336.249603 601.122131,337.532593 599.311890,338.193451 
	C595.601990,339.547913 593.425781,341.945435 592.141846,345.795166 
	C590.628174,350.333679 587.607727,350.443268 583.886780,346.188171 
z"/>
<path fill="#000000" opacity="1.000000" stroke="none" 
	d="
M677.826538,481.235718 
	C672.869019,490.922760 664.686829,493.599152 657.294312,488.287598 
	C652.626648,484.933777 650.878662,479.447784 652.983032,474.755920 
	C655.760437,468.563507 662.146729,464.817932 667.733215,466.104797 
	C674.668030,467.702240 678.788574,473.642456 677.826538,481.235718 
M660.592041,475.069550 
	C658.608704,477.564575 658.927795,480.018494 660.880371,482.307465 
	C662.280457,483.948700 664.060181,484.575531 666.256348,483.906006 
	C669.698975,482.856476 671.615234,479.602722 670.443115,476.615845 
	C669.139648,473.294464 665.735229,472.538239 660.592041,475.069550 
z"/>
<path fill="#000000" opacity="1.000000" stroke="none" 
	d="
M370.615082,485.204529 
	C367.420654,478.856689 367.949951,474.603943 372.215332,470.391693 
	C376.026245,466.628265 382.465210,465.428986 387.020264,467.634186 
	C392.062836,470.075439 395.030914,474.926575 394.275269,480.146057 
	C393.474884,485.674377 389.841888,488.943359 384.751984,490.627991 
	C378.826477,492.589142 374.406281,490.110229 370.615082,485.204529 
M380.752686,473.385376 
	C376.727051,474.296478 374.477509,476.501648 376.101868,480.776398 
	C377.107422,483.422638 379.230377,485.179901 382.301666,484.470825 
	C385.280334,483.783142 387.494019,481.760254 387.453522,478.643646 
	C387.407684,475.118530 384.869537,473.570160 380.752686,473.385376 
z"/>
<path fill="#000000" opacity="1.000000" stroke="none" 
	d="
M283.350586,474.108948 
	C285.003540,481.076874 282.697144,486.622009 277.163757,489.673706 
	C272.002136,492.520416 266.854156,491.688446 262.739746,487.342682 
	C257.720551,482.041229 257.665436,475.280182 262.602631,470.509949 
	C267.810303,465.478363 275.861084,465.433533 280.969879,470.495056 
	C281.887756,471.404419 282.478943,472.643494 283.350586,474.108948 
M277.472107,477.845581 
	C276.040436,474.575806 273.511017,472.985931 270.005341,473.527740 
	C267.639038,473.893433 266.383118,475.629059 266.179596,478.051758 
	C265.905945,481.309692 267.308258,483.788330 270.452026,484.324280 
	C274.631866,485.036835 276.776001,482.448456 277.472107,477.845581 
z"/>
<path fill="#000000" opacity="1.000000" stroke="none" 
	d="
M503.257019,467.442749 
	C509.795441,466.149628 516.218933,465.697571 521.754517,469.787506 
	C525.482178,472.541748 527.230530,476.566010 526.109924,481.213959 
	C524.955078,486.004211 521.444397,488.901825 516.850281,490.049957 
	C504.971954,493.018524 504.048492,492.203827 503.771820,480.233093 
	C503.676208,476.096252 503.338470,471.964996 503.257019,467.442749 
M516.971863,483.585236 
	C520.062988,481.895752 520.683350,479.254517 518.889587,476.525757 
	C517.262573,474.050537 514.087708,472.383240 511.645386,474.051422 
	C508.803009,475.992981 509.777802,479.945251 510.488434,482.802094 
	C511.315155,486.125488 514.141479,484.355347 516.971863,483.585236 
z"/>
<path fill="#000000" opacity="1.000000" stroke="none" 
	d="
M626.588989,470.786438 
	C626.696228,469.082123 626.290649,467.141418 627.947937,467.033295 
	C633.155640,466.693542 638.607910,465.256378 643.376099,468.653259 
	C647.466858,471.567474 647.991882,476.313019 644.898865,480.362885 
	C644.106506,481.400299 643.232056,482.374908 642.521729,483.226898 
	C642.756836,486.105743 646.154053,487.023590 645.913818,490.077972 
	C639.957520,493.117462 638.626831,486.240448 635.063293,484.533691 
	C634.380493,485.076263 633.790100,485.303864 633.665588,485.684021 
	C632.923584,487.949921 633.029785,490.933838 629.220215,490.222839 
	C625.701172,489.566040 626.773132,486.757904 626.695007,484.658661 
	C626.528564,480.183777 626.613525,475.699554 626.588989,470.786438 
M638.482971,473.762512 
	C636.224548,473.221222 633.679443,472.153992 633.151428,475.820587 
	C632.891846,477.623138 633.954956,478.706726 635.808411,478.569489 
	C638.451416,478.373810 640.546387,477.610809 638.482971,473.762512 
z"/>
<path fill="#000000" opacity="1.000000" stroke="none" 
	d="
M467.406555,487.170288 
	C467.274689,488.760834 468.455841,490.812744 465.695526,490.577423 
	C463.793823,490.415253 461.292145,490.796936 461.273102,487.842499 
	C461.232330,481.531433 461.366302,475.218567 461.506378,468.908142 
	C461.518860,468.347107 461.964874,467.609314 462.437042,467.273895 
	C466.851105,464.138153 478.628082,467.997894 480.648956,473.147125 
	C481.436920,475.154846 481.752594,477.227142 480.091125,478.729645 
	C476.863800,481.648224 476.757721,484.523712 479.418335,487.803772 
	C479.878479,488.371063 479.893982,489.299042 480.143677,490.159668 
	C475.863037,492.866516 474.060699,489.616119 471.792206,487.331116 
	C470.591614,486.121796 469.308533,482.726349 467.406555,487.170288 
M473.547363,476.668610 
	C474.517792,474.655579 473.153259,473.906097 471.644867,473.506897 
	C470.389526,473.174713 468.966980,473.020416 467.958679,474.207306 
	C467.261047,475.028503 467.109283,476.149567 467.637268,476.999298 
	C469.330322,479.724274 471.257599,478.217682 473.547363,476.668610 
z"/>
<path fill="#000000" opacity="1.000000" stroke="none" 
	d="
M613.144287,484.689209 
	C614.722229,484.793549 615.935852,484.707214 617.023132,485.037292 
	C618.577576,485.509186 618.712708,486.967407 618.625000,488.327271 
	C618.525330,489.873749 617.672852,490.795776 616.038391,490.725677 
	C614.375610,490.654388 612.717529,490.456207 611.054626,490.408905 
	C600.686951,490.113861 600.560120,490.121063 600.689453,479.941864 
	C600.890625,464.109253 598.166382,467.026703 614.194641,466.770294 
	C616.343384,466.735931 618.903687,466.543762 619.010925,469.686249 
	C619.126953,473.086731 616.562073,473.022247 614.122498,473.086365 
	C612.046021,473.140930 609.814575,472.506775 607.671814,474.293274 
	C609.406189,476.648773 611.885559,475.657623 613.940186,475.922852 
	C615.712952,476.151733 617.293579,476.394226 617.420166,478.635254 
	C617.544067,480.828125 616.085876,481.371979 614.324585,481.804962 
	C612.291809,482.304718 609.993530,481.503235 607.889221,483.164703 
	C609.136230,485.181152 611.108215,484.433777 613.144287,484.689209 
z"/>
<path fill="#000000" opacity="1.000000" stroke="none" 
	d="
M576.305847,472.697937 
	C576.101135,476.118713 577.847046,476.743652 580.398499,476.692413 
	C582.987549,476.640411 585.063293,476.061340 585.475403,473.090057 
	C585.634949,471.939270 585.688538,470.768860 585.714905,469.605652 
	C585.763916,467.444550 587.004211,466.766571 588.965149,466.764252 
	C590.923462,466.761963 592.221924,467.435883 592.212585,469.593109 
	C592.187378,475.420319 592.153687,481.247711 592.074707,487.074341 
	C592.049194,488.956879 591.359802,490.215179 589.111206,490.190491 
	C586.843567,490.165527 585.647339,489.239197 585.681946,486.947357 
	C585.729065,483.824768 584.877319,481.954163 581.100891,482.190704 
	C577.382690,482.423615 576.135010,484.149109 576.309082,487.594788 
	C576.396362,489.323242 576.155151,491.010620 573.733704,490.988159 
	C571.088989,490.963654 570.284668,489.352203 570.318237,487.072784 
	C570.391663,482.080353 570.463928,477.086609 570.653809,472.097839 
	C570.736267,469.932587 569.912903,466.871399 573.591797,466.962769 
	C577.311096,467.055145 575.996826,470.180237 576.305847,472.697937 
z"/>
<path fill="#000000" opacity="1.000000" stroke="none" 
	d="
M544.338257,484.716583 
	C546.051208,484.916199 547.411072,484.936432 548.639526,485.348328 
	C549.876892,485.763275 550.212036,486.941040 550.083740,488.212860 
	C549.939331,489.644745 549.011292,490.203339 547.721436,490.241302 
	C543.408020,490.368378 539.093689,490.512878 534.779175,490.530121 
	C532.974304,490.537354 532.755798,489.045502 532.748840,487.683868 
	C532.714417,480.910431 532.733154,474.136688 532.733154,467.080414 
	C537.665833,466.269379 542.441101,466.807098 547.189209,466.788422 
	C548.862000,466.781860 550.071533,467.511383 550.126770,469.425385 
	C550.184875,471.440002 549.170471,472.567413 547.213623,472.734009 
	C544.481262,472.966583 541.605591,472.216309 538.799316,473.975098 
	C539.945801,476.617065 542.243713,475.634766 543.960815,475.859436 
	C546.150024,476.145935 548.523621,475.991669 548.449158,479.161346 
	C548.382263,482.004333 546.169128,481.920013 544.173523,482.190155 
	C542.794312,482.376862 541.149048,481.735718 540.076111,483.275085 
	C540.870728,485.204742 542.585327,484.455475 544.338257,484.716583 
z"/>
<path fill="#000000" opacity="1.000000" stroke="none" 
	d="
M411.196136,473.399719 
	C410.302429,473.557068 408.664001,473.184662 409.834259,474.474030 
	C410.774567,475.509979 412.489594,475.798798 413.740448,476.605774 
	C416.535278,478.408813 419.736542,480.133759 418.677155,484.303955 
	C417.566864,488.674316 412.716858,492.073273 408.513184,491.659332 
	C407.523102,491.561859 406.488953,491.435211 405.582153,491.061890 
	C403.351990,490.143738 400.037720,489.709961 400.531555,486.505493 
	C401.117218,482.705292 404.170074,484.239136 406.544495,484.701752 
	C407.679352,484.922821 408.862762,485.098511 410.077545,484.051483 
	C409.929962,481.728668 407.725311,481.786926 406.255707,481.053497 
	C401.495880,478.678131 399.236725,475.087921 400.516174,471.855286 
	C402.090515,467.877594 407.106812,465.618073 411.890381,466.945038 
	C414.128876,467.565979 416.931702,468.505188 416.731598,471.226013 
	C416.505646,474.298676 413.492188,473.196777 411.196136,473.399719 
z"/>
<path fill="#000000" opacity="1.000000" stroke="none" 
	d="
M358.227203,475.000793 
	C355.267181,473.235535 352.609253,472.388123 350.338959,475.236938 
	C348.738434,477.245422 348.745087,479.642700 350.138153,481.755859 
	C351.955566,484.512695 354.392975,485.160156 357.422821,483.442841 
	C359.823730,482.082092 362.291351,482.747101 363.484650,484.961761 
	C364.815430,487.431488 362.100922,488.319214 360.573975,489.319916 
	C355.213898,492.832825 349.449738,491.835449 345.015778,486.792603 
	C340.706207,481.891235 340.596985,475.856323 344.729279,470.956940 
	C348.522644,466.459412 356.410034,465.063019 361.077545,468.119110 
	C362.297729,468.918030 363.964386,469.777893 363.396301,471.535370 
	C362.696838,473.699188 361.098999,475.143463 358.227203,475.000793 
z"/>
<path fill="#000000" opacity="1.000000" stroke="none" 
	d="
M702.929260,484.421326 
	C701.236755,482.843353 698.013916,484.685608 697.498779,480.460968 
	C702.777161,481.127747 705.667786,477.202423 709.314819,474.401550 
	C711.499817,472.723480 713.839966,474.108917 715.637695,475.686798 
	C718.185425,477.922943 720.492554,480.479797 719.479370,484.262970 
	C718.441284,488.139130 716.247559,491.474579 712.251465,492.502228 
	C708.165039,493.553131 706.642944,489.820923 704.700928,487.219849 
	C704.107727,486.425293 703.657593,485.523895 702.929260,484.421326 
z"/>
<path fill="#000000" opacity="1.000000" stroke="none" 
	d="
M236.997101,474.202026 
	C237.106537,472.409241 237.147736,471.078674 237.303802,469.761719 
	C237.551590,467.670654 239.030777,467.126587 240.858704,467.067810 
	C242.894302,467.002350 244.026840,468.030640 244.102051,470.007019 
	C244.228424,473.327454 244.356812,476.658844 244.222778,479.975037 
	C244.084686,483.391998 245.453323,484.926575 248.907379,484.640930 
	C250.053711,484.546143 251.241318,484.646576 252.380493,484.835754 
	C254.413910,485.173401 255.033569,486.682892 254.960861,488.501221 
	C254.888107,490.320007 253.733643,491.134491 251.993774,491.148010 
	C248.171326,491.177612 244.348312,491.150024 240.526199,491.198883 
	C238.044525,491.230621 237.406586,489.564850 237.319031,487.621185 
	C237.124710,483.307892 237.083862,478.987732 236.997101,474.202026 
z"/>
<path fill="#000000" opacity="1.000000" stroke="none" 
	d="
M437.786438,466.799927 
	C443.269043,467.267212 443.269043,467.267212 443.319672,472.954437 
	C434.839783,471.976410 436.691803,478.135651 436.268280,483.122589 
	C436.047058,485.727264 438.139252,490.180267 433.698822,490.440918 
	C428.850372,490.725586 431.002930,485.770386 430.078949,483.164185 
	C429.604431,481.825806 429.882019,480.201019 429.912170,478.707550 
	C429.973389,475.676086 429.895050,472.949005 425.578613,473.241943 
	C423.416565,473.388672 422.886780,471.680298 422.981201,469.814178 
	C423.088806,467.688141 423.895142,466.450684 426.359924,466.589264 
	C430.006165,466.794250 433.667389,466.732819 437.786438,466.799927 
z"/>
<path fill="#000000" opacity="1.000000" stroke="none" 
	d="
M193.958313,480.615906 
	C194.500229,479.517181 194.844421,478.743103 195.361389,478.110107 
	C197.689560,475.259369 199.823395,471.930023 204.212753,475.352875 
	C209.534225,479.502533 210.516586,482.418854 207.286331,486.849091 
	C205.363968,489.485504 204.016159,493.575470 199.580719,492.572693 
	C195.996536,491.762390 193.571945,486.367676 193.958313,480.615906 
z"/>
<path fill="#000000" opacity="1.000000" stroke="none" 
	d="
M268.129211,155.083466 
	C269.079224,158.455032 271.885010,158.405396 274.149750,159.223495 
	C275.259521,159.624359 276.407257,160.165741 276.430695,161.542191 
	C276.455414,162.997131 275.214813,163.552567 274.095734,163.705490 
	C270.271332,164.228073 268.365509,166.545105 267.433289,170.087204 
	C266.991913,171.764145 264.798859,173.019928 264.323151,171.385544 
	C262.810547,166.188843 258.589630,164.351959 253.391815,162.224838 
	C257.975433,158.412613 264.227936,158.243820 265.027924,152.502625 
	C267.215759,152.491409 267.476074,153.760086 268.129211,155.083466 
z"/>
<path fill="#000000" opacity="1.000000" stroke="none" 
	d="
M637.849060,152.129395 
	C639.980774,156.157776 642.492554,159.352966 648.429932,160.554718 
	C643.113953,164.305832 638.545410,166.763504 637.807739,171.911362 
	C635.589050,171.927429 634.948547,170.923370 634.597595,169.805771 
	C633.611572,166.666183 631.685425,164.703857 628.329285,164.226761 
	C627.157654,164.060211 626.034668,163.540405 625.752380,162.226547 
	C625.513611,161.115555 626.148071,159.966934 627.108765,159.875702 
	C632.247742,159.387619 634.601318,155.373093 637.849060,152.129395 
z"/>
<path fill="#000000" opacity="1.000000" stroke="none" 
	d="
M526.800781,374.828186 
	C524.795654,377.835022 522.863525,380.575775 519.078918,379.726166 
	C515.792175,378.988342 515.209778,375.790009 514.427002,373.166748 
	C512.990784,368.353577 514.561035,366.343750 519.634399,366.079010 
	C521.624756,365.975128 523.628479,366.007080 525.620728,366.096649 
	C527.409729,366.177124 529.522034,365.884125 530.445801,367.918274 
	C531.478516,370.192383 529.729187,371.614777 528.385986,373.080353 
	C527.936462,373.570801 527.478882,374.053802 526.800781,374.828186 
z"/>
<path fill="#000000" opacity="1.000000" stroke="none" 
	d="
M488.881134,475.102020 
	C488.897430,473.622559 488.905151,472.624237 488.916199,471.625946 
	C488.938019,469.650665 488.531921,467.324371 491.494446,467.172119 
	C494.355499,467.025116 495.195190,468.921234 495.170593,471.391327 
	C495.117676,476.707489 495.602356,482.043884 494.720917,487.330139 
	C494.418243,489.145142 494.044861,491.143829 491.547943,491.056793 
	C488.940765,490.965912 488.928375,488.891998 488.894501,487.063263 
	C488.823639,483.237732 488.873688,479.410004 488.881134,475.102020 
z"/>
<path fill="#000000" opacity="1.000000" stroke="none" 
	d="
M377.184509,117.889893 
	C379.042542,113.770256 383.815125,112.656136 385.566986,108.514557 
	C386.017059,107.450569 387.797668,108.223732 388.625580,109.045601 
	C391.151611,111.553116 393.567474,114.171616 396.390930,117.128998 
	C392.179535,119.134521 389.373444,122.408043 387.479828,128.035507 
	C384.233765,123.117867 382.102875,119.050194 377.184509,117.889893 
z"/>
<path fill="#000000" opacity="1.000000" stroke="none" 
	d="
M436.559692,191.834259 
	C431.431152,193.667892 433.394073,199.425949 429.972595,202.534271 
	C428.027100,198.910294 428.120270,195.251160 430.471130,192.786636 
	C432.892090,190.248581 435.641937,187.033508 440.065582,187.335205 
	C440.442413,190.421967 438.395233,190.841354 436.559692,191.834259 
z"/>
</svg>