<?xml version="1.0" standalone="no"?>
<!DOCTYPE svg PUBLIC "-//W3C//DTD SVG 20010904//EN"
 "http://www.w3.org/TR/2001/REC-SVG-20010904/DTD/svg10.dtd">
<svg version="1.0" xmlns="http://www.w3.org/2000/svg"
 width="300.000000pt" height="203.000000pt" viewBox="0 0 300.000000 203.000000"
 preserveAspectRatio="xMidYMid meet">
<metadata>
Created by potrace 1.10, written by Peter Selinger 2001-2011
</metadata>
<g transform="translate(0.000000,203.000000) scale(0.100000,-0.100000)"
fill="#000000" stroke="none">
<path d="M35 1005 c0 -950 1 -1005 18 -1005 9 0 17 7 17 16 0 8 4 13 9 9 5 -3
12 -1 16 5 3 6 -4 10 -17 10 l-23 0 -2 970 c-2 702 1 971 9 976 14 9 2828 18
2850 9 15 -6 18 -25 20 -148 l3 -142 5 153 5 152 -1455 0 -1455 0 0 -1005z"/>
<path d="M1454 1904 c-27 -14 -105 -56 -174 -91 -181 -95 -213 -117 -241 -165
-21 -38 -24 -55 -24 -150 l0 -108 -247 0 c-243 0 -248 0 -248 -20 0 -38 29
-78 65 -91 28 -11 35 -18 35 -40 0 -31 40 -75 73 -80 12 -3 90 -4 173 -3 l151
0 13 -33 c16 -46 64 -99 114 -127 22 -13 109 -62 192 -110 83 -47 159 -86 168
-86 22 0 79 28 266 132 164 92 203 123 226 185 l17 43 168 0 c160 0 169 1 194
23 15 13 27 34 28 52 l2 30 -197 -2 c-168 -2 -198 0 -198 12 0 12 18 15 90 15
53 0 90 4 90 10 0 6 -37 10 -90 10 -83 0 -90 1 -90 20 0 19 7 20 232 20 230 0
231 0 213 -20 -16 -17 -31 -20 -108 -20 -67 0 -95 4 -107 15 -15 14 -19 14
-29 1 -22 -26 -2 -36 67 -36 37 0 85 -5 106 -10 71 -16 126 24 126 91 0 18 -9
19 -250 19 l-250 0 0 111 c0 61 -4 118 -9 127 -7 15 21 98 76 220 5 11 -10 12
-78 7 -71 -5 -241 -29 -267 -37 -4 -2 -48 20 -98 48 -120 69 -122 69 -180 38z
m137 -55 c65 -37 80 -59 42 -59 -9 0 -40 14 -70 30 l-53 30 -50 -25 c-55 -28
-64 -30 -54 -13 4 7 3 8 -5 4 -6 -4 -9 -11 -6 -16 3 -4 -52 -38 -122 -75 -73
-37 -140 -80 -155 -98 l-28 -31 0 -217 c0 -282 -21 -248 255 -411 66 -38 130
-75 142 -80 18 -9 46 3 180 77 284 157 272 142 273 371 0 123 3 159 18 190
l17 39 3 -190 c3 -204 -3 -240 -50 -297 -25 -30 -392 -238 -420 -238 -10 0
-93 43 -185 96 -286 164 -272 143 -273 437 0 278 1 281 170 368 52 27 138 71
189 99 52 27 99 50 104 50 5 0 40 -18 78 -41z m399 -37 c0 -4 -14 -16 -30 -26
-17 -10 -69 -46 -115 -82 -88 -67 -111 -79 -79 -41 l19 22 -22 -19 c-12 -10
-21 -22 -20 -28 1 -5 -26 -29 -60 -54 -35 -25 -63 -39 -63 -32 1 37 33 143 54
176 21 34 31 39 97 55 62 15 157 31 207 36 6 0 12 -3 12 -7z m-446 -23 c20
-12 36 -23 36 -25 0 -2 -17 -12 -38 -23 -46 -23 -123 -104 -143 -149 -11 -25
-19 -32 -34 -27 -65 17 -93 16 -144 -5 -28 -13 -63 -36 -76 -52 l-25 -30 0 52
c0 44 4 56 28 77 19 18 294 172 359 202 1 1 18 -8 37 -20z m443 -56 c-8 -15
-25 -59 -37 -98 -55 -166 -146 -268 -271 -303 l-37 -10 -5 42 c-4 26 -14 48
-29 61 l-24 21 95 -1 c74 0 104 4 129 18 33 18 46 46 15 31 -10 -4 -58 -9
-108 -12 -105 -5 -105 -2 4 75 36 26 113 84 170 130 57 46 106 82 108 79 3 -2
-2 -17 -10 -33z m-359 -10 c-20 -24 -38 -100 -38 -161 0 -42 -4 -53 -30 -75
l-30 -27 0 85 c0 47 -4 85 -9 85 -12 0 -31 -88 -31 -140 0 -36 -3 -40 -25 -40
-14 0 -34 -9 -45 -20 -11 -11 -22 -20 -23 -20 -13 0 18 131 39 170 33 60 62
89 138 134 61 37 81 40 54 9z m-292 -193 l29 -10 1 -93 0 -92 -123 0 -123 0 0
41 c0 51 43 115 97 143 43 23 77 26 119 11z m574 -140 l0 -60 -55 0 c-30 0
-55 1 -55 3 0 3 103 114 108 116 1 1 2 -26 2 -59z m-332 13 c20 -18 34 -85 20
-98 -4 -4 -2 -18 3 -32 5 -14 7 -34 4 -44 -7 -23 -35 -25 -35 -4 0 12 -13 15
-60 15 -47 0 -60 -3 -60 -15 0 -8 -9 -15 -20 -15 -18 0 -20 7 -20 69 0 78 14
128 38 134 44 12 111 6 130 -10z m-558 -73 c0 -18 -8 -20 -92 -22 -73 -2 -96
0 -105 12 -9 12 -16 13 -31 3 -29 -17 -197 -20 -216 -4 -9 8 -16 17 -16 22 0
5 104 9 230 9 222 0 230 -1 230 -20z m300 -30 c12 -8 9 -10 -12 -10 -15 0 -63
-13 -107 -29 l-81 -28 0 33 0 33 88 4 c48 1 89 4 92 5 3 1 12 -3 20 -8z m536
0 l54 0 0 -34 0 -34 -47 18 c-27 10 -74 23 -106 30 -69 14 -68 36 1 26 25 -3
69 -6 98 -6z m-839 -23 c-4 -13 -29 -14 -249 -8 l-133 4 95 11 c119 14 293 10
287 -7z m780 -100 c69 -48 72 -52 57 -69 -9 -9 -20 -15 -24 -13 -5 3 -11 -1
-14 -7 -3 -9 -9 -8 -20 6 -8 10 -13 22 -11 26 3 4 -3 14 -13 21 -16 13 -16 13
-2 -6 8 -11 -18 14 -57 55 -81 84 -96 119 -30 70 23 -17 75 -55 114 -83z
m-417 94 c0 -5 -7 -15 -17 -22 -9 -8 -46 -48 -83 -90 l-68 -76 -32 20 -33 21
24 15 c13 9 62 44 108 79 85 61 101 70 101 53z m-94 -9 c-2 -4 -37 -29 -76
-56 -58 -40 -74 -47 -81 -35 -15 23 -7 30 76 64 95 39 87 37 81 27z m530 -26
c58 -26 80 -40 82 -55 5 -31 -9 -26 -85 26 -111 76 -111 78 3 29z m-898 -6
c95 0 102 -1 102 -20 0 -19 -7 -20 -163 -20 -150 0 -165 2 -185 20 -12 12 -22
24 -22 27 0 3 37 3 83 0 45 -4 128 -7 185 -7z m1452 1 c0 -6 -10 -17 -22 -25
-18 -13 -54 -16 -180 -16 -151 0 -158 1 -158 20 0 18 8 20 158 23 86 1 167 4
180 5 12 1 22 -2 22 -7z m-970 -36 c7 -8 23 -15 35 -15 19 0 23 -7 28 -52 4
-29 2 -57 -3 -63 -6 -7 -13 -34 -16 -61 -3 -27 -7 -51 -9 -53 -2 -2 -29 12
-60 30 -31 19 -67 40 -80 46 -12 7 -28 20 -35 28 -14 17 -11 21 74 113 45 47
48 48 66 27z m313 -54 c61 -63 65 -69 49 -83 -37 -31 -153 -98 -170 -98 -5 0
-12 21 -16 46 -3 26 -10 52 -16 58 -14 18 0 128 15 122 7 -2 21 2 32 9 10 8
23 15 29 15 6 0 40 -31 77 -69z m-185 6 c3 -32 0 -37 -17 -37 -18 0 -21 6 -21
41 0 33 3 40 18 37 12 -2 18 -14 20 -41z m12 -145 c4 -55 2 -65 -13 -74 -33
-17 -47 -2 -47 49 0 72 9 95 34 91 18 -3 22 -11 26 -66z"/>
<path d="M1765 1753 c-43 -15 -93 -58 -82 -69 4 -4 17 2 30 14 12 11 44 30 70
42 71 32 59 41 -18 13z"/>
<path d="M1282 1655 c-10 -12 -10 -18 0 -29 11 -12 15 -12 30 1 15 13 15 17 3
29 -16 17 -17 17 -33 -1z"/>
<path d="M1885 1654 c-16 -14 -56 -46 -89 -70 -32 -24 -53 -44 -47 -44 21 0
129 79 151 110 26 36 24 37 -15 4z"/>
<path d="M1240 1487 c0 -8 -10 -19 -22 -25 l-23 -11 22 -6 c12 -4 24 -14 27
-22 5 -12 10 -11 25 8 17 21 17 25 4 46 -17 26 -33 30 -33 10z"/>
<path d="M1445 1388 c-12 -39 -11 -78 2 -78 9 0 13 -7 11 -17 -2 -10 -10 -17
-17 -15 -7 1 -10 -2 -6 -7 9 -16 34 -1 37 22 5 33 65 37 77 5 7 -17 10 -19 10
-5 1 9 4 17 9 17 12 0 12 62 1 77 -15 17 -118 18 -124 1z m123 -25 c3 -22 0
-23 -57 -23 -52 0 -61 3 -61 18 0 29 10 33 65 30 43 -3 50 -6 53 -25z"/>
<path d="M2934 1450 c0 -129 2 -182 3 -117 2 64 2 170 0 235 -1 64 -3 11 -3
-118z"/>
<path d="M880 1510 c0 -5 -7 -10 -15 -10 -8 0 -15 -4 -15 -10 0 -5 7 -10 15
-10 8 0 15 -8 15 -17 1 -17 1 -17 14 0 7 9 18 17 25 17 6 0 11 5 11 10 0 6 -7
10 -15 10 -8 0 -15 5 -15 10 0 6 -4 10 -10 10 -5 0 -10 -4 -10 -10z"/>
<path d="M2130 1510 c0 -5 -7 -10 -15 -10 -8 0 -15 -4 -15 -10 0 -5 7 -10 15
-10 8 0 15 -8 15 -17 0 -14 3 -13 21 5 18 20 18 24 5 37 -17 17 -26 19 -26 5z"/>
<path d="M2935 645 c0 -314 1 -440 2 -282 2 159 2 415 0 570 -1 155 -2 26 -2
-288z"/>
<path d="M1050 935 c0 -8 -9 -15 -20 -15 -26 0 -25 -8 6 -36 28 -27 44 -31 44
-10 0 8 7 16 15 20 8 3 15 10 15 16 0 5 -7 10 -15 10 -8 0 -15 7 -15 15 0 8
-7 15 -15 15 -8 0 -15 -7 -15 -15z"/>
<path d="M1960 936 c0 -7 -10 -17 -22 -20 l-23 -7 23 -11 c12 -6 22 -17 22
-25 0 -7 7 -13 15 -13 8 0 15 6 15 14 0 8 7 16 15 20 8 3 15 10 15 16 0 5 -7
10 -15 10 -8 0 -15 7 -15 15 0 8 -7 15 -15 15 -8 0 -15 -6 -15 -14z"/>
<path d="M560 655 l0 -155 30 0 c29 0 30 2 30 45 l0 45 40 0 c83 0 140 44 140
107 0 79 -51 113 -170 113 l-70 0 0 -155z m159 76 c38 -38 2 -81 -70 -81 -28
0 -29 1 -29 50 l0 50 40 0 c26 0 47 -7 59 -19z"/>
<path d="M1722 792 c-2 -7 -2 -35 1 -63 l6 -49 -65 0 -65 0 7 61 7 60 -34 -3
-34 -3 -3 -147 -3 -147 37 1 36 1 -5 57 -5 57 59 -1 59 -1 0 -57 0 -58 35 0
35 0 0 154 0 153 -31 -1 c-17 -1 -34 -7 -37 -14z m-127 -152 c-10 -32 -25 -23
-25 16 0 32 1 34 16 20 9 -10 13 -24 9 -36z m165 0 c0 -40 0 -40 -20 -20 -24
24 -24 24 -4 44 22 23 24 21 24 -24z"/>
<path d="M853 735 c-37 -16 -38 -18 -22 -46 8 -16 13 -18 24 -9 21 18 86 8
101 -15 13 -19 11 -20 -39 -20 -70 0 -107 -23 -107 -68 0 -45 35 -77 82 -77
20 0 41 7 48 15 7 8 16 15 21 15 5 0 9 -7 9 -15 0 -10 10 -15 28 -15 l28 0 -3
88 c-5 122 -8 131 -48 148 -43 18 -81 17 -122 -1z m107 -148 c0 -21 -22 -37
-51 -37 -31 0 -44 13 -35 35 7 19 86 21 86 2z"/>
<path d="M1105 738 c-30 -16 -45 -39 -45 -69 0 -33 19 -49 79 -70 25 -9 46
-22 46 -30 0 -20 -52 -23 -80 -5 -21 14 -24 13 -41 -5 -20 -22 -20 -21 23 -43
40 -20 85 -21 122 -1 31 15 41 33 41 70 0 28 -16 42 -77 64 -51 18 -64 44 -25
49 13 2 34 -4 47 -12 23 -15 25 -15 35 3 16 30 12 38 -21 50 -40 14 -78 14
-104 -1z"/>
<path d="M1315 738 c-39 -14 -37 -11 -25 -43 8 -22 14 -25 22 -17 16 16 81 15
96 0 23 -23 13 -33 -30 -30 -63 4 -108 -26 -108 -72 0 -61 75 -97 127 -61 12
8 23 11 25 7 2 -5 15 -12 31 -16 l27 -6 0 94 c0 84 -3 98 -23 121 -26 31 -92
42 -142 23z m93 -136 c31 -21 -24 -63 -63 -48 -24 9 -18 44 8 49 37 7 41 7 55
-1z"/>
<path d="M1900 742 c-54 -24 -80 -62 -80 -117 0 -100 91 -153 185 -108 40 19
43 28 15 43 -15 8 -30 8 -55 0 -35 -12 -69 0 -79 27 -4 10 16 13 84 13 102 0
104 2 71 76 -26 56 -93 87 -141 66z m88 -79 l14 -23 -61 0 c-33 0 -61 3 -61 7
0 3 8 15 17 25 23 25 71 20 91 -9z m-118 -57 c-15 -15 -32 7 -24 29 7 17 8 17
21 -1 9 -12 10 -21 3 -28z"/>
<path d="M2118 742 l-28 -3 0 -120 0 -120 33 3 32 3 3 70 c3 79 19 105 64 105
16 0 28 5 28 13 0 6 3 23 7 36 6 23 4 24 -27 17 -40 -8 -76 -38 -84 -72 -4
-13 -11 -24 -16 -24 -16 0 -12 50 4 56 16 6 29 32 18 37 -4 1 -19 1 -34 -1z"/>
<path d="M2331 733 c-97 -51 -101 -172 -6 -217 42 -20 68 -20 111 0 35 17 74
75 74 111 0 10 -9 32 -20 50 -38 63 -103 85 -159 56z m84 -57 c13 -9 19 -26
19 -51 0 -61 -54 -86 -94 -43 -26 28 -26 62 2 88 25 23 47 25 73 6z"/>
<path d="M1016 463 c-3 -3 -6 -16 -7 -27 0 -20 -1 -20 -11 2 -6 12 -15 22 -20
22 -11 0 -10 -5 8 -48 l16 -37 13 29 12 29 7 -27 c9 -37 20 -33 39 14 13 34
13 40 1 40 -8 0 -14 -7 -14 -15 0 -8 -4 -15 -10 -15 -5 0 -10 6 -10 14 0 17
-14 28 -24 19z"/>
<path d="M1168 459 c-39 -22 -11 -88 32 -74 27 9 26 25 -2 22 -14 -1 -23 4
-26 16 -3 13 3 17 22 17 29 0 35 14 10 24 -19 7 -15 8 -36 -5z"/>
<path d="M1258 459 c-22 -12 -23 -52 -3 -69 12 -10 21 -10 40 -2 31 14 34 56
6 72 -23 12 -22 12 -43 -1z m40 -36 c-2 -10 -10 -18 -18 -18 -8 0 -16 8 -18
18 -2 12 3 17 18 17 15 0 20 -5 18 -17z"/>
<path d="M1420 453 c0 -7 6 -13 14 -13 9 0 12 -8 9 -24 -3 -13 0 -27 6 -30 7
-5 11 4 11 23 0 21 5 31 15 31 30 0 14 18 -20 22 -24 3 -35 0 -35 -9z"/>
<path d="M1690 425 c0 -46 0 -47 28 -40 42 10 56 28 43 54 -7 11 -18 21 -26
21 -7 0 -20 3 -29 6 -13 5 -16 -2 -16 -41z m56 4 c3 -6 0 -15 -7 -20 -22 -14
-29 -11 -29 11 0 21 24 27 36 9z"/>
<path d="M1790 425 c0 -37 2 -41 25 -40 31 2 46 15 17 15 -12 0 -22 5 -22 11
0 6 7 9 15 5 8 -3 15 -1 15 4 0 6 -7 10 -15 10 -24 0 -17 18 8 22 18 3 16 5
-10 9 -33 5 -33 5 -33 -36z"/>
<path d="M1919 466 c-4 -31 0 -76 7 -75 5 1 8 5 7 10 -2 5 6 9 17 9 11 0 20
-4 20 -10 0 -5 5 -10 10 -10 6 0 10 15 10 34 0 19 -4 38 -10 41 -5 3 -10 -3
-10 -14 0 -15 -6 -21 -21 -21 -14 0 -19 5 -16 15 4 8 2 17 -3 20 -6 4 -10 4
-11 1z"/>
<path d="M2109 468 c-1 -2 -2 -20 -3 -41 -3 -41 8 -58 19 -29 6 16 7 16 16 0
16 -28 25 -21 26 18 1 29 -3 37 -24 45 -25 9 -32 11 -34 7z"/>
<path d="M2207 452 c-22 -24 -21 -35 3 -57 18 -17 21 -17 45 -1 30 20 32 37 7
59 -24 22 -35 21 -55 -1z m42 -38 c-15 -18 -28 -18 -36 2 -8 20 17 36 34 22
10 -8 10 -14 2 -24z"/>
<path d="M790 443 c0 -42 13 -63 36 -63 13 0 24 5 24 10 0 6 -7 10 -15 10 -10
0 -15 10 -15 30 0 20 -5 30 -15 30 -8 0 -15 -8 -15 -17z"/>
<path d="M877 454 c-12 -13 -8 -51 8 -64 26 -22 67 3 63 38 -2 22 -9 28 -33
30 -17 2 -34 0 -38 -4z m51 -31 c-2 -10 -10 -18 -18 -18 -8 0 -16 8 -18 18 -2
12 3 17 18 17 15 0 20 -5 18 -17z"/>
<path d="M1345 450 c-8 -14 3 -30 21 -30 8 0 14 -5 14 -10 0 -6 -6 -10 -14 -8
-8 2 -15 -1 -15 -7 -1 -5 9 -10 22 -10 15 0 23 7 25 23 2 15 -2 22 -12 22 -9
0 -16 4 -16 10 0 5 7 7 15 4 8 -4 15 -1 15 5 0 14 -47 15 -55 1z"/>
<path d="M1550 421 c0 -39 20 -61 20 -23 1 16 1 16 14 0 19 -26 23 -22 22 20
-1 33 -4 37 -28 40 -27 3 -28 1 -28 -37z"/>
<path d="M1640 420 c0 -22 5 -40 10 -40 6 0 10 18 10 40 0 22 -4 40 -10 40 -5
0 -10 -18 -10 -40z"/>
<path d="M2020 423 c0 -35 2 -38 30 -40 17 -1 30 2 30 7 0 6 -9 10 -20 10 -25
0 -26 17 -2 23 12 3 11 5 -6 6 -14 1 -20 5 -17 12 4 6 13 8 21 5 7 -3 16 -1
19 4 4 6 -7 10 -24 10 -29 0 -31 -2 -31 -37z"/>
<path d="M657 433 c-11 -10 -8 -41 4 -49 6 -3 18 1 27 9 13 13 13 19 2 31 -14
17 -23 20 -33 9z"/>
<path d="M2364 426 l-21 -11 24 -19 c23 -17 26 -17 41 -3 13 13 13 19 2 31
-14 18 -17 18 -46 2z"/>
<path d="M1503 323 c37 -2 96 -2 130 0 34 2 4 3 -68 3 -71 0 -99 -1 -62 -3z"/>
<path d="M1738 313 c23 -2 61 -2 85 0 23 2 4 4 -43 4 -47 0 -66 -2 -42 -4z"/>
<path d="M123 32 c10 -4 324 -7 697 -7 598 0 680 -2 680 -15 0 -12 2 -12 9 -2
6 10 143 13 697 12 437 0 692 -4 698 -10 18 -18 46 -11 46 10 0 20 -6 20
-1422 19 -783 0 -1415 -4 -1405 -7z"/>
</g>
</svg>
