<?xml version="1.0" encoding="UTF-8" standalone="no"?>
<!-- Created with Inkscape (http://www.inkscape.org/) -->

<svg
   width="595.46436"
   height="546.1441"
   viewBox="0 0 157.54994 144.50063"
   version="1.1"
   id="svg1"
   inkscape:version="1.3.2 (091e20e, 2023-11-25, custom)"
   sodipodi:docname="pasahero teal border.svg"
   xml:space="preserve"
   inkscape:export-filename="pasahero blue red border.svg"
   inkscape:export-xdpi="96"
   inkscape:export-ydpi="96"
   xmlns:inkscape="http://www.inkscape.org/namespaces/inkscape"
   xmlns:sodipodi="http://sodipodi.sourceforge.net/DTD/sodipodi-0.dtd"
   xmlns:xlink="http://www.w3.org/1999/xlink"
   xmlns="http://www.w3.org/2000/svg"
   xmlns:svg="http://www.w3.org/2000/svg"><sodipodi:namedview
     id="namedview1"
     pagecolor="#ffffff"
     bordercolor="#000000"
     borderopacity="0.25"
     inkscape:showpageshadow="2"
     inkscape:pageopacity="0.0"
     inkscape:pagecheckerboard="true"
     inkscape:deskcolor="#d1d1d1"
     inkscape:document-units="px"
     showborder="false"
     showguides="true"
     inkscape:zoom="45.896745"
     inkscape:cx="307.48368"
     inkscape:cy="360.31967"
     inkscape:window-width="1920"
     inkscape:window-height="1017"
     inkscape:window-x="-8"
     inkscape:window-y="-8"
     inkscape:window-maximized="1"
     inkscape:current-layer="layer1" /><defs
     id="defs1"><linearGradient
       id="linearGradient56"
       inkscape:collect="always"><stop
         style="stop-color:#d1dbdc;stop-opacity:1;"
         offset="0"
         id="stop56" /><stop
         style="stop-color:#d1dbdc;stop-opacity:0;"
         offset="1"
         id="stop57" /></linearGradient><linearGradient
       id="linearGradient53"
       inkscape:collect="always"><stop
         style="stop-color:#e5e5e5;stop-opacity:1;"
         offset="0"
         id="stop53" /><stop
         style="stop-color:#e5e5e5;stop-opacity:0;"
         offset="1"
         id="stop54" /></linearGradient><linearGradient
       id="swatch24"
       inkscape:swatch="solid"><stop
         style="stop-color:#ffffff;stop-opacity:1;"
         offset="0"
         id="stop25" /></linearGradient><linearGradient
       inkscape:collect="always"
       xlink:href="#linearGradient53"
       id="linearGradient54"
       x1="238.79186"
       y1="633.74185"
       x2="383.55894"
       y2="633.74185"
       gradientUnits="userSpaceOnUse" /><linearGradient
       inkscape:collect="always"
       xlink:href="#linearGradient56"
       id="linearGradient57"
       x1="237.62243"
       y1="630.17194"
       x2="386.41907"
       y2="630.17194"
       gradientUnits="userSpaceOnUse" /></defs><g
     inkscape:label="Layer 1"
     inkscape:groupmode="layer"
     id="layer1"
     transform="translate(-233.94049,-536.74333)"><path
       id="path63-8-5"
       style="fill:url(#linearGradient54);fill-opacity:1;fill-rule:nonzero;stroke:none;stroke-width:0.35683;stroke-dasharray:none;stroke-dashoffset:0;stroke-opacity:1;paint-order:normal"
       d="m 274.78091,611.4706 c -13.61885,0.0788 -27.5111,6.40998 -35.98905,16.5464 1.00555,6.07003 4.80253,11.76829 7.87738,17.24562 8.38108,-11.59451 22.21917,-19.0199 37.01377,-19.04202 11.97366,0.009 23.44977,4.55613 31.88865,12.63437 0.65224,0.62367 1.2841,1.26632 1.89469,1.92702 -0.031,-0.0938 -0.0624,-0.18752 -0.0941,-0.28112 8.48675,9.75361 21.07875,15.43337 34.39054,15.51223 8.23803,-3.6e-4 16.67662,-2.18386 23.71771,-6.25084 3.89103,-4.61803 6.04258,-10.79879 8.07844,-16.70383 -8.54597,9.84689 -21.26851,15.55089 -34.69389,15.5546 -12.69335,-0.0597 -24.76988,-5.21467 -33.25322,-14.19448 -1.31263,-1.33641 -2.53385,-2.75145 -3.65613,-4.23643 0.32461,0.4553 0.63996,0.91651 0.94587,1.38337 -0.30591,-0.46686 -0.62126,-0.92807 -0.94587,-1.38337 -0.25655,-0.33841 -0.50788,-0.68038 -0.75391,-1.02578 -0.26782,-0.34981 -0.54119,-0.69574 -0.82004,-1.03766 0.27885,0.34192 0.55222,0.68785 0.82004,1.03766 -0.99381,-1.5285 -1.8854,-3.115 -2.66948,-4.7501 0.23388,0.82056 0.49342,1.63431 0.77827,2.44016 0.29045,0.33212 0.5756,0.6684 0.85535,1.00873 -0.27975,-0.34033 -0.5649,-0.67661 -0.85535,-1.00873 -8.54548,-9.73814 -21.19273,-15.36984 -34.52979,-15.3758 z m 36.14949,19.29908 c 0.0532,0.1108 0.10691,0.22139 0.16111,0.33176 -0.0542,-0.11037 -0.1079,-0.22096 -0.16111,-0.33176 z m 2.26219,1.25005 c 0.20987,0.32723 0.41511,0.65713 0.61566,0.9896 -0.20055,-0.33247 -0.40579,-0.66237 -0.61566,-0.9896 z m 0.91254,1.49087 c 0.19592,0.33636 0.38706,0.67521 0.57337,1.01647 -0.18631,-0.34126 -0.37745,-0.68011 -0.57337,-1.01647 z m -1.10746,1.1038 c 0.0632,0.10602 0.12681,0.21179 0.19093,0.3173 -0.0641,-0.10551 -0.12776,-0.21128 -0.19093,-0.3173 z m 1.93894,0.38551 c 0.26113,0.49007 0.51231,0.98488 0.7534,1.48415 -0.24109,-0.49927 -0.49227,-0.99408 -0.7534,-1.48415 z"
       sodipodi:nodetypes="ccccccccccccccccccccccccccccccccccccccc" /><path
       style="fill:none;fill-opacity:1;stroke:#007f8a;stroke-width:1.85208;stroke-dasharray:none;stroke-opacity:1;paint-order:normal"
       id="path13-2-7"
       sodipodi:type="arc"
       sodipodi:cx="312.71646"
       sodipodi:cy="608.92682"
       sodipodi:rx="77.847198"
       sodipodi:ry="71.390686"
       sodipodi:start="0.30707304"
       sodipodi:end="2.9068679"
       sodipodi:arc-type="arc"
       d="M 386.92215,630.50607 A 77.847198,71.390686 0 0 1 309.90102,680.2708 77.847198,71.390686 0 0 1 237.00396,625.53053"
       sodipodi:open="true" /><path
       id="path63-8"
       style="fill:#ffffff;fill-opacity:1;fill-rule:nonzero;stroke:url(#linearGradient57);stroke-width:0.363074;stroke-dasharray:none;stroke-dashoffset:0;stroke-opacity:1;paint-order:normal"
       d="m 273.80142,607.90069 c -14.09955,0.0788 -27.40179,6.01866 -36.17899,16.15508 1.54746,5.97219 3.73176,12.00215 6.88137,17.41426 8.67691,-11.59451 23.19712,-18.79722 38.51393,-18.81934 12.39629,0.009 24.27747,4.55613 33.01421,12.63437 0.67526,0.62367 1.32943,1.26632 1.96157,1.92702 -0.0321,-0.0938 -0.0645,-0.18752 -0.0973,-0.28112 8.78631,9.75361 21.82276,15.43337 35.60441,15.51223 8.52881,-3.6e-4 17.21999,-2.28169 24.50961,-6.34867 3.69076,-5.20502 6.30113,-10.70096 8.40884,-16.606 -8.84762,9.84689 -22.01923,15.55089 -35.91848,15.5546 -13.14138,-0.0597 -25.64417,-5.21467 -34.42695,-14.19448 -1.35896,-1.33641 -2.62328,-2.75145 -3.78517,-4.23643 0.33606,0.4553 0.66254,0.91651 0.97924,1.38337 -0.3167,-0.46686 -0.64318,-0.92807 -0.97924,-1.38337 -0.2656,-0.33841 -0.5258,-0.68038 -0.78051,-1.02578 -0.27727,-0.34981 -0.5603,-0.69574 -0.84899,-1.03766 0.28869,0.34192 0.57172,0.68785 0.84899,1.03766 -1.02889,-1.52849 -1.95196,-3.115 -2.76372,-4.7501 0.24214,0.82056 0.51083,1.63431 0.80574,2.44016 0.30071,0.33212 0.59592,0.6684 0.88554,1.00873 -0.28962,-0.34033 -0.58483,-0.67661 -0.88554,-1.00873 -8.8471,-9.73813 -21.94075,-15.36984 -35.74856,-15.3758 z m 37.42543,19.29908 c 0.0551,0.1108 0.11069,0.22139 0.16681,0.33176 -0.0561,-0.11037 -0.11172,-0.22096 -0.16681,-0.33176 z m 2.34205,1.25005 c 0.21727,0.32723 0.42975,0.65713 0.63738,0.9896 -0.20763,-0.33247 -0.42011,-0.66237 -0.63738,-0.9896 z"
       sodipodi:nodetypes="ccccccccccccccccccccccccccccc" /><path
       id="path58-0"
       style="mix-blend-mode:normal;fill:#007f8a;fill-opacity:1;fill-rule:nonzero;stroke:#007f8a;stroke-width:0.363802;stroke-dasharray:none;stroke-dashoffset:0;stroke-opacity:0;paint-order:normal"
       d="m 269.47088,591.95174 c -13.08128,0.0537 -25.53994,5.11948 -34.3519,13.96763 -0.0755,0.73424 -0.13852,1.46951 -0.18914,2.20555 0.0806,5.68742 0.90203,11.34562 2.44688,16.85426 8.80984,-10.13642 22.16155,-16.0763 36.31355,-16.15508 13.85917,0.006 27.00152,5.63767 35.88153,15.3758 l 1.96525,2.30994 c 0.26659,0.33841 0.52776,0.68038 0.78342,1.02578 1.16622,1.48498 2.43523,2.90002 3.79925,4.23643 8.81544,8.97981 21.36473,14.1348 34.55499,14.19448 13.95095,-0.004 27.17154,-5.70771 36.05207,-15.5546 2.13549,-5.95726 3.40577,-12.14658 3.77806,-18.40818 -8.27057,13.48825 -23.84974,21.84307 -40.74997,21.85344 -18.42896,-0.0424 -31.89871,-9.06819 -41.9358,-23.66172 l -3.58752,-4.04511 c -8.86261,-9.02992 -21.49799,-14.19107 -34.76067,-14.19862 z m 37.94498,24.04298 c 0.0238,0.14912 0.0484,0.29812 0.0739,0.447 -0.0255,-0.14888 -0.0501,-0.29788 -0.0739,-0.447 z m 7.68221,9.49916 c 0.04,0.15414 0.0791,0.30848 0.11731,0.46302 -0.0382,-0.15454 -0.0773,-0.30888 -0.11731,-0.46302 z"
       sodipodi:nodetypes="cccccccccccccccccccccc" /><path
       style="fill:none;fill-opacity:1;stroke:#007f8a;stroke-width:1.85208;stroke-dasharray:none;stroke-opacity:0.988235;paint-order:normal"
       id="path10"
       sodipodi:type="arc"
       sodipodi:cx="-312.71637"
       sodipodi:cy="-609.06476"
       sodipodi:rx="77.847198"
       sodipodi:ry="71.390686"
       sodipodi:start="6.0493992"
       sodipodi:end="3.470981"
       sodipodi:arc-type="arc"
       d="m -236.98691,-625.60329 a 77.847198,71.390686 0 0 1 -33.7429,76.65551 77.847198,71.390686 0 0 1 -90.03895,-3.95001 77.847198,71.390686 0 0 1 -25.60977,-79.25931"
       transform="scale(-1)"
       sodipodi:open="true" /><text
       xml:space="preserve"
       style="font-size:3.175px;opacity:1;fill:#ffffff;fill-opacity:1;stroke:#ffffff;stroke-width:1.85208;stroke-opacity:1"
       x="291.33472"
       y="656.48859"
       id="text1"><tspan
         sodipodi:role="line"
         id="tspan1"
         style="stroke-width:1.85208"></tspan></text><circle
       id="path15"
       style="fill:#000000;stroke:#000000;stroke-width:0.264583"
       cx="365.83801"
       cy="683.95203"
       r="0.024571497" /><circle
       id="path17"
       style="fill:#000000;stroke:#007f8a;stroke-width:0.264583;stroke-opacity:1"
       cx="365.28458"
       cy="696.1272"
       r="0.024571497" /></g></svg>
